# Blender v3.0.1 OBJ File: ''
# www.blender.org
mtllib Powerup.mtl
o Cube
v 0.077255 0.467678 -0.421747
v 0.077255 -2.882023 0.738978
v 0.077255 0.298354 0.210891
v 0.077255 -2.852937 0.941823
v -0.077255 0.467678 -0.421747
v -0.077255 -2.882023 0.738978
v -0.077255 0.298354 0.210891
v -0.077255 -2.852937 0.941823
v 0.077255 0.720939 -0.421747
v -0.077255 0.720939 -0.421747
v 0.077255 0.376162 1.723085
v -0.077255 0.376162 1.723085
v 0.077255 0.717047 1.723085
v -0.077255 0.717047 1.723085
v 0.077255 -1.654584 0.092662
v -0.077255 -1.654584 0.092662
v 0.077255 -1.657672 0.406376
v -0.077255 -1.657672 0.406376
v 0.077255 -0.797648 1.009601
v -0.077255 -0.797648 1.009601
v 0.077255 -0.822304 1.432850
v -0.077255 -0.822304 1.432850
v -0.077255 -3.175359 1.160766
v 0.077255 -3.175359 1.160766
v -0.077255 -3.179307 1.133230
v 0.077255 -3.179307 1.133230
vt 0.529438 1.000000
vt 0.397489 1.000000
vt 0.397489 0.750000
vt 0.529438 0.750000
vt 0.397489 0.000000
vt 0.529438 0.000000
vt 0.529438 0.250000
vt 0.397489 0.250000
vt 0.397489 0.500000
vt 0.529438 0.500000
vt 0.375000 0.500000
vt 0.375000 0.500000
vt 0.375000 0.250000
vt 0.375000 0.500000
vt 0.375000 0.250000
vt 0.529438 0.250000
vt 0.529438 0.500000
vt 0.529438 0.000000
vt 0.529438 0.000000
vt 0.529438 0.750000
vt 0.529438 0.750000
vt 0.529438 1.000000
vt 0.529438 1.000000
vt 0.875000 0.436037
vt 0.875000 0.686037
vt 0.375000 0.250000
vt 0.375000 0.500000
vt 0.375000 0.500000
vt 0.375000 0.500000
vt 0.375000 0.250000
vt 0.375000 0.250000
vt 0.375000 0.250000
vn 0.0000 0.7370 0.6759
vn -1.0000 -0.0000 0.0000
vn 1.0000 0.0000 0.0000
vn 0.0000 -0.4659 -0.8848
vn 0.0000 -0.6478 -0.7618
vn 0.0000 0.0000 -1.0000
vn 0.0000 0.0000 1.0000
vn 0.0000 1.0000 0.0018
vn 0.0000 -0.9987 0.0514
vn 0.0000 0.7306 -0.6828
vn 0.0000 0.4088 0.9126
vn 0.0000 0.4872 0.8733
vn 0.0000 -0.9899 0.1419
vn 0.0000 -0.7984 -0.6021
vn 0.0000 0.5618 0.8273
vn 0.0000 -0.7492 -0.6623
vn 0.0000 -0.7756 0.6312
usemtl Material
s 1
f 7/1/1 22/2/1 21/3/1 3/4/1
f 22/5/2 7/6/2 5/7/2 20/8/2
f 21/3/3 19/9/3 1/10/3 3/4/3
f 21/3/3 17/11/3 15/12/3 19/9/3
f 16/13/4 15/12/4 2/14/5 6/15/5
f 5/7/6 10/16/6 9/17/6 1/10/6
f 7/6/2 12/18/2 14/19/2 10/16/2 5/7/2
f 9/17/3 13/20/3 11/21/3 3/4/3 1/10/3
f 12/22/7 11/21/7 13/20/7 14/23/7
f 10/24/8 14/25/8 13/20/8 9/17/8
f 20/8/2 16/13/2 18/26/2 22/5/2
f 3/4/9 11/21/9 12/22/9 7/1/9
f 2/14/3 4/27/3 24/28/3 26/29/3
f 19/9/10 15/12/10 16/13/10 20/8/10
f 17/11/11 18/26/11 8/30/12 4/27/12
f 18/26/2 16/13/2 6/15/2 8/30/2
f 24/28/13 23/31/13 25/32/13 26/29/13
f 15/12/3 17/11/3 4/27/3 2/14/3
f 8/30/2 6/15/2 25/32/2 23/31/2
f 6/15/5 2/14/5 26/29/14 25/32/14
f 4/27/12 8/30/12 23/31/15 24/28/15
f 19/9/16 20/8/16 5/7/16 1/10/16
f 22/2/17 18/26/17 17/11/17 21/3/17
